PathFileType        4      (X/Y/Z)      C:\Users\pc\Desktop\IMUTRC\Sujet_04\Sujet_04_velo_100.trc         
DataRate	CameraRate	NumFrames	NumMarkers	Units	OrigDataRate	OrigDataStartFrame	OrigNumFrames
60.0	60.0	4	64	mm	60.0	610	975
Frame#	Time	pHipOrigin			pRightASI			pLeftASI			pRightCSI			pLeftCSI			pRightIschialTub			pLeftIschialTub			pSacrum			pL5SpinalProcess			pL3SpinalProcess			pT12SpinalProcess			pIJ			pT4SpinalProcess			pT8SpinalProcess			pPX			pC7SpinalProcess			pTopOfHead			pRightAuricularis			pLeftAuricularis			pBackOfHead			pRightAcromion			pLeftAcromion			pRightArmLatEpicondyle			pRightArmMedEpicondyle			pLeftArmLatEpicondyle			pLeftArmMedEpicondyle			pRightUlnarStyloid			pRightRadialStyloid			pRightOlecranon			pLeftUlnarStyloid			pLeftRadialStyloid			pLeftOlecranon			pRightTopOfHand			pRightPinky			pRightBallHand			pLeftTopOfHand			pLeftPinky			pLeftBallHand			pRightGreaterTrochanter			pRightKneeLatEpicondyle			pRightKneeMedEpicondyle			pRightPatella			pLeftGreaterTrochanter			pLeftKneeLatEpicondyle			pLeftKneeMedEpicondyle			pLeftPatella			pRightTibialTub			pRightLatMalleolus			pRightMedMalleolus			pLeftTibialTub			pLeftLatMalleolus			pLeftMedMalleolus			pRightHeelFoot			pRightFirstMetatarsal			pRightFifthMetatarsal			pRightPivotFoot			pRightHeelCenter			pRightToe			pLeftHeelFoot			pLeftFirstMetatarsal			pLeftFifthMetatarsal			pLeftPivotFoot			pLeftHeelCenter			pLeftToe			
		X1	Y1	Z1	X2	Y2	Z2	X3	Y3	Z3	X4	Y4	Z4	X5	Y5	Z5	X6	Y6	Z6	X7	Y7	Z7	X8	Y8	Z8	X9	Y9	Z9	X10	Y10	Z10	X11	Y11	Z11	X12	Y12	Z12	X13	Y13	Z13	X14	Y14	Z14	X15	Y15	Z15	X16	Y16	Z16	X17	Y17	Z17	X18	Y18	Z18	X19	Y19	Z19	X20	Y20	Z20	X21	Y21	Z21	X22	Y22	Z22	X23	Y23	Z23	X24	Y24	Z24	X25	Y25	Z25	X26	Y26	Z26	X27	Y27	Z27	X28	Y28	Z28	X29	Y29	Z29	X30	Y30	Z30	X31	Y31	Z31	X32	Y32	Z32	X33	Y33	Z33	X34	Y34	Z34	X35	Y35	Z35	X36	Y36	Z36	X37	Y37	Z37	X38	Y38	Z38	X39	Y39	Z39	X40	Y40	Z40	X41	Y41	Z41	X42	Y42	Z42	X43	Y43	Z43	X44	Y44	Z44	X45	Y45	Z45	X46	Y46	Z46	X47	Y47	Z47	X48	Y48	Z48	X49	Y49	Z49	X50	Y50	Z50	X51	Y51	Z51	X52	Y52	Z52	X53	Y53	Z53	X54	Y54	Z54	X55	Y55	Z55	X56	Y56	Z56	X57	Y57	Z57	X58	Y58	Z58	X59	Y59	Z59	X60	Y60	Z60	X61	Y61	Z61	X62	Y62	Z62	X63	Y63	Z63	X64	Y64	Z64	
610	10.15	4.920011254230237E-14	1250.02225	5.863441087832831E-14	73.25995570169324	1334.59992	160.5105020906335	107.73943732000006	1347.4057	-131.14634051107132	42.93109129725587	1415.84214	133.63212456317382	71.17646641200979	1426.26544	-105.1315121913907	-77.23819172407731	1198.85871	49.260069665396045	-63.11551182714479	1204.10015	-70.12174228401012	-66.12461661967684	1286.35491	-6.250206217937922	-4.37702621726198	1384.39354	4.605787890535277	64.71136229034448	1483.74252	19.02116547507778	131.4428658019708	1572.13214	33.31488754998901	394.5497160490826	1588.80943	81.95386270631394	285.08946587764706	1700.36857	65.57066516556357	208.697530535188	1649.20504	49.58621336008224	293.09517618592565	1514.47638	60.563630094224266	331.9656805034187	1729.67295	76.30935026854971	562.3957727714612	1825.09086	105.09396190465478	483.7584495983865	1761.83629	164.547310080036	491.82089545042584	1772.37872	27.935718889098155	454.65110389682934	1809.6048	97.61229176255111	309.04707350066406	1682.67873	259.98653489736927	362.3466605286711	1706.80124	-112.92971912556278	330.2181291837938	1356.16127	255.75081162276584	318.44814134087255	1355.74434	189.74072813136297	396.5872959982561	1380.87939	-97.41994827730409	367.7063758915184	1380.93896	-36.95339438864977	437.26657696799464	1125.65734	192.9065519922791	485.35474628822146	1148.88641	198.97392919238743	300.5914218249064	1345.32104	222.29631714258363	459.2222824113224	1146.68263	8.637810551941328	509.0359053177578	1165.68283	15.27891401250858	358.12789037711417	1372.42163	-72.92391599388156	661.705380782088	1080.27129	274.22512082335356	565.2057146772783	1057.69739	238.72496083496452	501.0196173446801	1099.8671	199.20294329091257	682.8066832337286	1057.63783	-9.005190045783081	578.7329310952773	1056.08922	6.790914836744037	516.5986028005616	1113.68543	23.550499061082576	2.1213351535254645	1248.53321	180.16043753989646	387.90334068076663	1068.18026	269.5490329695092	406.7942651743224	1052.99201	188.92997391265794	415.57135352568025	1103.61949	222.46285387721304	10.071703630648656	1224.70851	-176.0074333980578	212.85323123245246	839.93967	-188.79062568371427	232.49384867066618	840.17791	-106.91436507309933	262.4096659790048	864.71735	-154.56488591080065	428.90191616294373	1009.92887	224.72833536749147	175.75784548799376	683.82834	154.51170709260387	190.86188321541903	692.58392	90.5991250652674	266.482540686383	792.52852	-156.66064342477958	68.4406168770125	424.25828	-178.72213780497725	80.16181682752035	420.02939	-113.60414321702166	114.95177740039706	617.417	108.73240126440399	285.4035482628346	559.40387	106.43810048944108	266.7250516116361	561.36941	188.97822826260403	298.3921266397857	552.49471	151.7543260213606	154.8910426809307	605.7429	118.06091373111386	381.7435943321438	522.53515	171.3070810249472	-1.14164288827061	359.03817	-131.9207743160108	161.3745771424659	292.2099	-92.80107615706628	155.24908096345106	280.59536	-176.45432568921402	180.30108312072218	276.60472	-133.71855009612474	38.58038325274371	343.55212	-132.6732975413497	262.6836537377285	238.66389	-134.50143632697612	
611	10.167	4.920011254230237E-14	1250.02225	5.863441087832831E-14	73.73982916893823	1334.4808	160.34109061571436	107.50972431192638	1347.22701	-131.42010181370875	43.533165659474975	1415.72301	133.51568753273048	71.10723872894317	1426.20588	-105.30667344252015	-77.16896527357903	1198.97784	49.43524500484601	-63.34363986230562	1204.21927	-69.93032013384547	-66.1010222040868	1286.47404	-6.036754108899466	-4.125289678190594	1384.39354	4.627819081977416	65.16921099402343	1483.6234	19.103498199674465	132.14510986772189	1571.77477	33.50316150309292	395.33587781234314	1587.49907	82.14947140854099	286.27316715098766	1699.47514	66.05472518487093	209.68246205348862	1648.60942	49.92604772084945	293.6059993340805	1513.58295	60.52376192384682	333.1876662067922	1728.60084	76.83903589488926	563.709003261023	1823.66137	105.54707101048407	485.1099709458572	1760.34724	165.0460524533419	493.004589063322	1770.94923	28.419785336281677	456.0026264768685	1808.23488	98.11102004753636	309.9863729840564	1681.42794	260.36464602772503	363.8203840036843	1705.72913	-112.37801639610159	331.1631848712726	1355.0296	255.5798292632544	319.4314955467047	1354.73179	189.615372611452	397.2675165330094	1379.92641	-96.97994421300487	367.8138867720496	1379.86684	-36.73259344216763	438.0364637438995	1124.4661	192.80480374371032	486.12464072457067	1147.63562	198.87217451594256	301.4908659936735	1344.24892	222.16362044567347	459.64184668496847	1145.55096	8.67451766950586	509.501095198436	1164.55115	15.277336700040195	358.5637143172271	1371.40908	-72.58983906976911	662.323708382898	1078.96093	274.4060459390139	565.8770154899955	1056.44659	238.78369914397118	501.78217060403017	1098.67587	199.18509865153285	683.1879630773416	1056.38703	-9.01410853525067	579.1142109388904	1054.89799	6.781996347276447	517.0255082512069	1112.55375	23.503296141581956	2.845610410718706	1248.05671	180.09697495392902	387.7790094275367	1064.48743	266.6210156317753	406.1355163573478	1049.53743	185.82837263626305	415.4396810954512	1099.98623	219.61874657654423	9.858257949486273	1224.52983	-175.98383132202338	217.15480110909928	842.14345	-188.6679511027096	237.01620540547458	842.79863	-106.8992026051942	266.51979318929034	867.51675	-154.67034825796958	431.45126289665853	1007.66553	223.13344292462966	194.33249738166947	667.44887	164.97275015673324	208.4133255886373	675.13233	100.67471582204183	267.7795102769095	792.82633	-156.50489003717777	47.927211579727185	436.94493	-176.20452570701485	59.518869458261676	432.35868	-111.05559552647	137.87417016309462	596.0939	121.6876939199611	311.7296440458803	549.3975	120.11395430359121	293.3485172012298	552.61383	202.63782241028724	325.34389762851663	544.75168	165.5272025745504	178.52302068637857	587.33832	131.12057030270978	410.4428436706493	520.98655	185.40193963908	-24.697924008696383	376.07283	-129.41572953468005	134.0983594843909	301.0846	-89.81820124654504	127.5459514268547	289.52962	-173.42425551963663	152.25497102629785	284.46687	-130.63392050915868	14.124664391426947	358.50212	-130.0355484026643	232.54130524798705	242.41628	-131.13515887503058	
612	10.183	4.920011254230237E-14	1250.02225	5.863441087832831E-14	74.47144560313072	1334.06387	160.1937179926818	107.02092592733766	1347.52482	-131.63197784284714	44.189777690317804	1415.36564	133.7422382554229	70.84081860330498	1426.38456	-105.16087047151156	-76.97753669553828	1198.91828	49.66338070045127	-63.69397002500891	1204.39796	-69.79185833983612	-66.09209605417473	1286.5336	-5.655480693162481	-4.025118742090275	1384.4531	4.932515977204108	65.55940932710416	1483.44471	19.475859553819895	132.86362126038432	1571.4174	33.98879883486874	396.1220254872833	1586.01003	82.3450788781997	287.52608201907435	1698.4626	66.71394522273943	210.68364681038003	1647.95424	50.56324422772025	294.1021248073479	1512.5704	60.651726683351725	334.52449753982006	1727.35004	77.50560477020142	565.1591169995572	1821.93408	105.88533448665896	486.5910279374253	1758.73908	165.51385157361403	494.31781955288363	1769.34107	28.87289444211089	457.39243225437224	1806.62672	98.65538802787441	311.24664311746284	1679.99846	260.93995726109677	365.23378419677806	1704.71658	-111.6201963067251	332.1701334926948	1353.71924	255.66792585238193	320.40015331021795	1353.54056	189.6578359331029	398.0258820077288	1378.97342	-95.98348496564262	367.64030283338855	1378.8543	-36.19817587842283	438.8992007951021	1123.15574	193.09167132044618	487.0256545453618	1146.2657	199.20467412758666	302.5051557920949	1343.05769	222.16780699773585	459.94078737610874	1144.47885	9.123440223272723	509.75441671042023	1163.41948	15.7645513442844	358.8789146748343	1370.39653	-71.84354670945422	663.0275374215619	1077.59101	275.05950334491985	566.6338048848149	1055.07667	239.31495442233467	502.5919332107569	1097.30595	199.59416712324276	683.4103349084162	1055.07667	-8.656437195548222	579.2982983399319	1053.70675	7.094042079946746	517.2861645123143	1111.36252	23.906593088316697	3.6464481001016935	1246.26986	180.12475592158142	385.25477557832033	1054.00456	262.130161623664	403.0002832285685	1039.88843	181.07266815453752	413.4351824559811	1089.62248	215.46929658122406	9.980452416584328	1224.52983	-175.93086453799197	226.39093030100466	847.26576	-188.40950579218296	246.4657943668629	848.57612	-106.66435813813374	275.2215189057714	873.88986	-154.58548565353564	431.6625858800097	999.08864	220.23479152746108	211.7014373267591	645.64927	175.20147863363943	224.92687731996796	651.84369	110.53266025727096	273.4855554293063	796.16179	-156.00568287085414	30.34916602974333	455.70688	-173.89516898766786	41.643452869161514	450.64413	-108.7299650523356	159.8189866728113	569.35068	134.21924341025422	336.27574214621757	533.79232	132.87308644370228	318.1080686431739	538.25945	215.37334604648777	350.39346361168896	531.40985	178.33037534878076	200.97864625592953	563.51363	143.6122503900571	436.88064454673304	513.83914	198.2842981734147	-45.65449442309382	398.94454	-127.148284323765	108.6918210710646	315.67723	-86.46036983060492	101.88033406488947	304.00312	-170.00453116975302	126.07119057174694	297.8087	-127.09043204015308	-7.784310547892893	379.28916	-127.51320436729662	203.94190668375705	251.41011	-127.04200335417386	
613	10.2	4.920011254230237E-14	1250.02225	5.863441087832831E-14	75.23399886248076	1333.40869	160.17587335330208	106.2274294149539	1348.18	-131.74366884756466	44.740461348405596	1414.82959	134.21319966107635	70.08718506599091	1426.92062	-104.76176007683928	-76.65656481295584	1198.62047	49.860566715146746	-63.99867458068003	1204.6362	-69.6916809758597	-66.13614434873847	1286.47404	-5.152006382451372	-4.114786215810096	1384.4531	5.474282378392578	65.59192989260626	1483.38515	20.07058507859533	132.9800518629515	1571.29828	34.59086553664341	396.4267364708305	1585.29529	82.24490917466775	287.9545724426324	1697.9861	67.13192575604093	211.02087069898494	1647.65643	51.05780647683979	294.2243333627664	1512.09391	60.70469469995149	335.0442391774425	1726.75442	77.84701644343704	565.8068169688086	1821.15978	105.73061302618274	487.30795558974324	1758.02434	165.53429136426726	494.7830094335619	1768.56676	28.871317129642478	458.0254422091806	1805.91198	98.66849306940446	311.97983043624765	1679.40284	261.25776685829794	365.50178163488465	1704.41877	-111.3008093970555	332.75753192879154	1353.18318	255.7193165565132	320.8123764068647	1353.0045	189.7784530877325	398.2718623427138	1378.73517	-95.41236028433332	367.320915923719	1378.49692	-35.93017844031624	439.3806439143711	1122.56013	193.3874561540813	487.4541373084755	1145.67008	199.62266108876423	303.008630102806	1342.52163	222.2118552922996	459.95704704257565	1144.12148	9.420810029820672	509.725050769855	1163.06211	16.10020558086532	358.88049198730266	1370.09872	-71.37835682877605	663.3957045632005	1077.05496	275.6836012381367	567.0093208638972	1054.54062	239.8551358506104	503.0660492413472	1096.71033	199.97386322651133	683.2897177537865	1054.54062	-8.24421409890141	579.1850223623015	1053.23026	7.422355139528463	517.1728885346838	1110.94559	24.234906147898357	4.40900135945175	1243.70871	180.10691128220168	380.45597536939977	1038.81632	257.0598021696741	397.59783777283656	1025.89142	175.65356351075712	409.5919401643515	1074.55336	211.07443215245843	10.498609081293893	1225.185	-176.0546363175584	238.96415049766168	855.06835	-189.085132592848	258.8711880615136	856.8552	-107.3546749532416	286.85701173619674	883.24105	-155.17405545264313	429.0266469377551	986.28286	216.53743279916512	225.93726684088065	621.58632	183.5495519499542	238.7578325748864	626.35126	118.6761999540149	282.0178760987444	802.77314	-156.40068607322075	17.06059549323686	478.93596	-172.77479209697788	28.103152221459744	473.39671	-107.63161169264333	177.90484660977438	541.11841	144.46841810568966	356.05453510388713	514.91125	143.10126187482118	337.8868616008434	520.2718	225.6015214776067	370.38571633884135	514.25607	188.5349499364335	219.40749517859666	537.66383	153.80687332854833	457.9637418440522	501.56942	208.58430929462585	-62.00796677887513	426.10469	-125.78871646187034	87.5071085331858	334.97523	-84.00150370209359	80.2687225042415	323.12244	-167.49845446129666	104.0253388113306	315.91547	-124.45323471468662	-25.30362544931453	404.48378	-125.87514203279093	179.3508883138122	265.40712	-123.82421104471148	
